<?xml version="1.0" standalone="no"?>
<!DOCTYPE svg PUBLIC "-//W3C//DTD SVG 20010904//EN"
 "http://www.w3.org/TR/2001/REC-SVG-20010904/DTD/svg10.dtd">
<svg version="1.0" xmlns="http://www.w3.org/2000/svg"
 width="260.000000pt" height="260.000000pt" viewBox="0 0 260.000000 260.000000"
 preserveAspectRatio="xMidYMid meet">
<metadata>
Created by potrace 1.14, written by Peter Selinger 2001-2017
</metadata>
<g transform="translate(0.000000,260.000000) scale(0.100000,-0.100000)"
fill="#000000" stroke="none">
<path d="M1304 2446 c-11 -28 1 -51 27 -54 31 -4 53 20 44 48 -8 24 -62 29
-71 6z"/>
<path d="M1440 2415 c0 -40 5 -52 34 -81 24 -24 43 -34 64 -34 39 0 44 8 30
53 -16 51 -57 96 -95 103 l-33 7 0 -48z m50 10 c30 -15 60 -61 60 -90 0 -9
-15 2 -37 27 -21 24 -44 49 -50 56 -25 26 -15 29 27 7z m0 -66 c16 -18 30 -34
30 -36 0 -9 -52 32 -61 48 -14 28 -3 23 31 -12z"/>
<path d="M1061 2441 c-18 -11 -9 -74 18 -126 33 -65 90 -215 82 -215 -22 0
-123 113 -145 162 -27 59 -49 84 -65 73 -23 -14 32 -95 146 -214 37 -39 49
-57 40 -63 -8 -5 -5 -8 10 -8 34 0 81 -64 74 -103 -2 -11 28 -68 46 -89 8 -9
21 -14 29 -11 10 4 5 18 -22 56 -30 46 -61 124 -52 132 2 1 35 19 74 39 65 33
94 60 80 74 -3 3 -30 -14 -60 -37 -30 -22 -58 -41 -61 -41 -3 0 35 39 85 88
59 57 91 95 92 112 5 45 -26 28 -58 -33 -29 -54 -114 -147 -135 -147 -12 0
-13 -6 22 85 17 44 39 89 50 101 20 22 24 50 10 73 -11 18 -41 -24 -41 -59 0
-27 -47 -159 -62 -175 -7 -7 -8 26 -4 95 13 194 12 220 -9 220 -15 0 -19 -13
-17 -60 1 -14 3 -77 5 -140 l4 -114 -23 29 c-28 35 -61 130 -69 195 -8 66 -10
73 -21 92 -6 11 -14 14 -23 9z"/>
<path d="M1595 2420 c-11 -17 5 -32 21 -19 7 6 11 15 8 20 -7 12 -21 11 -29
-1z"/>
<path d="M970 2396 c0 -21 16 -28 29 -12 9 11 8 15 -5 20 -22 8 -24 8 -24 -8z"/>
<path d="M1658 2359 c-24 -14 -23 -23 8 -54 37 -37 114 -51 153 -26 21 13 -3
47 -49 71 -43 22 -85 25 -112 9z m78 -15 c13 -3 22 -10 19 -14 -6 -9 -75 12
-75 24 0 4 7 5 16 2 9 -3 27 -9 40 -12z m18 -39 c39 -17 15 -30 -28 -15 -19 6
-40 18 -47 26 -11 13 -9 14 17 8 16 -4 42 -13 58 -19z"/>
<path d="M833 2344 c-3 -8 0 -26 7 -39 l13 -24 17 22 c13 16 15 27 9 39 -12
22 -38 23 -46 2z"/>
<path d="M684 2306 c-8 -22 4 -84 22 -111 22 -34 107 -95 133 -95 54 0 25 107
-49 179 -44 43 -95 56 -106 27z m99 -56 c36 -40 64 -96 53 -107 -7 -8 -137
137 -132 146 13 21 34 11 79 -39z"/>
<path d="M1877 2296 c-9 -22 13 -37 36 -24 20 10 20 11 2 24 -24 18 -32 18
-38 0z"/>
<path d="M1647 2249 c-21 -12 -23 -45 -2 -52 7 -3 24 2 35 11 21 17 21 18 3
34 -13 12 -23 14 -36 7z"/>
<path d="M1546 2242 c-2 -4 -1 -14 4 -22 7 -11 11 -12 25 0 13 10 13 15 3 21
-17 11 -26 11 -32 1z"/>
<path d="M1810 2206 c-72 -23 -122 -62 -95 -73 15 -5 107 1 145 10 45 10 130
42 130 48 0 3 -6 12 -14 18 -25 21 -98 20 -166 -3z"/>
<path d="M567 2178 c-14 -18 -30 -52 -36 -75 -7 -24 -16 -43 -22 -43 -6 0 -6
7 1 19 15 29 13 71 -4 71 -8 0 -26 -14 -41 -32 -23 -27 -26 -39 -22 -75 3 -32
0 -46 -14 -58 -16 -16 -18 -14 -26 26 -10 48 -26 60 -43 29 -17 -32 -18 -72
-2 -104 11 -23 12 -34 2 -55 l-12 -26 -24 48 c-13 26 -26 47 -29 47 -8 0 -35
-72 -35 -93 0 -12 12 -33 26 -48 22 -23 24 -30 14 -49 -12 -22 -12 -22 -36 14
-30 44 -39 45 -53 5 -12 -36 -4 -59 32 -82 21 -14 23 -21 19 -69 -5 -65 2 -60
26 18 16 54 21 60 57 72 47 15 71 37 80 72 6 25 5 25 -36 22 -36 -4 -41 -2
-36 13 4 9 7 18 7 19 0 2 11 1 25 -2 38 -7 71 5 111 40 l37 32 -29 12 c-19 8
-37 9 -53 3 -33 -13 -39 -3 -14 22 15 16 34 21 69 22 50 0 91 15 113 40 9 12
8 18 -4 31 -9 9 -20 14 -25 11 -5 -3 -11 -1 -15 5 -3 5 -2 10 3 10 14 0 54 80
57 113 3 29 2 30 -11 12 -8 -10 -14 -23 -14 -28 0 -15 -49 -77 -61 -77 -12 0
16 68 38 92 9 10 14 21 11 24 -3 3 -17 -10 -31 -28z m-79 -126 c-13 -34 -28
-42 -28 -15 0 16 30 57 36 50 2 -2 -2 -18 -8 -35z m97 -42 c3 -6 -5 -10 -19
-10 -13 0 -33 -3 -43 -6 -16 -5 -16 -4 1 10 22 18 52 21 61 6z m-201 -37 c-4
-47 -4 -48 -15 -30 -11 18 -4 57 10 57 4 0 7 -12 5 -27z m-70 -79 c9 -23 7
-84 -2 -84 -15 0 -41 35 -38 50 9 46 29 63 40 34z m146 -8 c-20 -18 -80 -38
-80 -25 0 5 1 9 3 9 1 0 20 7 42 15 50 18 52 18 35 1z m-183 -183 c-8 -8 -57
48 -57 65 0 36 13 31 36 -15 13 -25 22 -48 21 -50z m103 58 c-11 -21 -60 -35
-60 -17 0 19 14 33 35 38 28 6 37 0 25 -21z"/>
<path d="M1475 2179 c-8 -12 9 -18 68 -23 26 -2 47 0 47 5 0 8 -21 13 -41 11
-4 -1 -21 3 -38 8 -18 5 -33 5 -36 -1z"/>
<path d="M947 2163 c-23 -23 99 -103 156 -103 16 0 12 5 -18 19 -22 10 -49 28
-60 41 -23 26 -70 52 -78 43z"/>
<path d="M1950 2127 c-90 -25 -131 -65 -175 -167 -38 -90 -40 -102 -24 -150
l12 -32 33 53 c34 53 44 84 47 151 4 62 7 61 113 -54 41 -45 154 -225 154
-246 0 -9 42 -73 46 -69 2 2 -12 39 -31 81 -38 83 -101 183 -146 231 l-28 30
82 1 c133 2 206 21 207 55 0 7 -7 8 -84 12 -72 4 -158 -8 -198 -29 -29 -15
-30 -14 -72 24 l-42 39 73 -5 c88 -6 156 11 183 46 11 13 20 28 20 32 0 12
-123 10 -170 -3z"/>
<path d="M1676 2098 c-13 -63 -15 -109 -7 -131 12 -31 51 -68 63 -61 9 6 8 21
-9 127 -3 23 -6 52 -7 65 0 14 -6 22 -18 22 -10 0 -20 -9 -22 -22z"/>
<path d="M1554 2092 c-36 -25 -12 -78 29 -63 26 10 34 36 17 56 -14 16 -29 19
-46 7z"/>
<path d="M891 2066 c-9 -11 -8 -18 4 -30 14 -14 17 -14 35 1 11 9 18 18 17 19
-24 18 -46 22 -56 10z"/>
<path d="M2136 2071 c-4 -5 -3 -11 1 -13 14 -7 33 -3 34 7 0 14 -28 19 -35 6z"/>
<path d="M698 2035 c-14 -32 5 -57 41 -53 20 2 27 9 29 32 6 48 -50 65 -70 21z"/>
<path d="M1392 2028 c-17 -17 -15 -46 7 -93 30 -64 146 -160 180 -147 39 14
40 49 5 121 -46 91 -153 158 -192 119z m110 -65 c54 -54 100 -133 79 -133 -13
0 -171 157 -171 169 0 8 15 18 30 20 3 1 31 -25 62 -56z m-18 -95 c11 -10 17
-20 15 -23 -3 -2 -21 12 -40 32 -32 35 -18 30 25 -9z"/>
<path d="M1039 2008 c-7 -14 -7 -23 2 -34 16 -20 33 -18 55 7 18 20 18 21 -1
32 -31 18 -44 17 -56 -5z"/>
<path d="M1288 2004 c-11 -10 3 -34 19 -34 8 0 13 7 11 17 -3 18 -20 27 -30
17z"/>
<path d="M808 1961 c-24 -15 -64 -35 -89 -44 -58 -22 -86 -49 -110 -103 -14
-30 -17 -53 -12 -76 4 -18 5 -51 3 -73 -2 -22 -4 -68 -4 -102 -1 -55 2 -65 28
-92 16 -17 39 -34 50 -37 12 -4 40 -24 63 -45 56 -52 108 -66 182 -51 31 7 74
12 95 12 49 0 83 19 134 74 47 51 44 45 47 107 1 25 8 68 15 95 17 66 7 112
-34 160 -18 21 -40 53 -49 69 -25 50 -60 75 -115 84 -28 4 -62 16 -77 25 -43
28 -79 27 -127 -3z m120 -40 c62 -46 61 -51 -10 -52 -35 -1 -77 -1 -95 0 -17
1 -34 -3 -38 -9 -3 -5 -2 -10 3 -10 5 0 1 -25 -11 -55 -11 -30 -24 -55 -29
-55 -4 0 -14 11 -20 25 -10 21 -8 30 9 53 11 15 25 44 32 64 24 73 89 89 159
39z m125 -16 c45 -21 81 -77 79 -122 -3 -81 -40 -62 -103 52 -27 50 -35 72
-26 77 16 10 14 10 50 -7z m-319 -45 c-18 -26 -29 -58 -30 -85 -2 -24 -10 -58
-19 -75 l-17 -32 -24 23 c-45 43 -38 125 16 174 18 16 92 46 98 40 2 -2 -9
-22 -24 -45z m283 -36 c7 -10 13 -31 13 -46 l0 -28 -40 20 c-32 16 -70 62 -70
83 0 12 86 -14 97 -29z m-131 1 c11 -8 14 -15 7 -15 -18 0 -19 0 -52 -10 -35
-10 -44 -4 -30 21 12 23 48 25 75 4z m47 -43 c24 -26 38 -99 21 -106 -11 -4
-13 5 -12 36 1 40 -23 75 -43 62 -11 -6 -12 10 -2 19 10 11 19 8 36 -11z m256
-43 c21 -36 22 -46 12 -78 -16 -52 -35 -72 -75 -81 -38 -8 -42 -4 -27 32 6 13
20 56 32 96 12 39 25 72 29 72 3 0 17 -18 29 -41z m-384 -88 c-6 -14 -9 -13
-26 8 -25 30 -24 52 4 81 l22 25 3 -49 c2 -27 0 -56 -3 -65z m103 97 c16 -16
15 -48 -1 -48 -16 0 -40 38 -32 50 8 13 19 12 33 -2z m-58 -12 c0 -8 3 -23 7
-33 6 -16 5 -16 -10 -4 -18 15 -23 51 -7 51 6 0 10 -6 10 -14z m168 -61 c-10
-23 -36 -40 -46 -30 -3 2 0 11 7 18 7 9 9 30 6 53 l-6 39 25 -28 c22 -23 24
-31 14 -52z m72 24 c22 -52 -16 -135 -50 -114 -5 3 -7 12 -4 19 6 16 12 66 13
115 1 27 4 31 15 22 8 -6 19 -25 26 -42z m-304 -116 c-11 -11 -62 15 -75 39
-13 23 -13 29 4 54 l18 28 29 -58 c16 -32 27 -60 24 -63z m137 63 c17 -13 16
-14 -11 -24 -22 -8 -32 -6 -50 8 -12 10 -22 21 -22 24 0 12 65 5 83 -8z m-245
-38 c6 -18 24 -40 39 -49 19 -10 32 -30 41 -59 7 -23 11 -44 9 -47 -10 -9 -97
20 -113 38 -21 23 -30 99 -15 128 16 29 25 27 39 -11z m332 3 c0 -59 -49 -103
-91 -81 -10 6 -19 15 -19 20 0 17 51 69 73 73 12 2 25 5 30 6 4 0 7 -8 7 -18z
m-155 -7 c29 -12 35 -18 24 -25 -23 -14 -48 -10 -59 10 -19 36 -16 37 35 15z
m307 -78 c6 -90 -65 -170 -137 -152 -31 8 -31 15 0 76 14 27 25 58 25 69 0 41
109 48 112 7z m-276 -7 c22 -21 22 -23 6 -35 -24 -18 -87 -17 -106 2 -17 16
-21 46 -8 58 13 14 84 -2 108 -25z m150 0 c-5 -46 -27 -63 -70 -55 -20 4 -36
11 -36 16 0 6 95 69 107 70 2 0 1 -14 -1 -31z m-88 -78 l42 -12 -15 -30 c-31
-58 -86 -62 -184 -11 -29 15 -54 32 -54 37 -1 6 31 13 70 16 40 3 76 8 79 12
4 3 10 5 13 3 3 -2 25 -9 49 -15z"/>
<path d="M1607 1966 c-9 -22 15 -37 35 -22 13 10 15 15 6 24 -16 16 -35 15
-41 -2z"/>
<path d="M593 1934 c-8 -22 5 -30 23 -12 14 14 14 16 -1 21 -9 4 -18 1 -22 -9z"/>
<path d="M1893 1935 c-11 -8 -37 -52 -57 -99 -50 -118 -47 -144 11 -88 50 47
74 90 80 141 6 54 -4 67 -34 46z"/>
<path d="M2048 1903 c-33 -8 -18 -31 30 -49 61 -24 147 -24 200 0 49 22 52 33
15 47 -24 9 -206 10 -245 2z"/>
<path d="M1356 1854 c-12 -12 -13 -20 -6 -35 13 -23 29 -24 55 -5 19 14 19 15
1 35 -23 25 -30 26 -50 5z"/>
<path d="M1941 1790 c-38 -57 -40 -64 -36 -122 5 -69 6 -72 32 -64 35 11 64
78 63 148 0 120 -2 122 -59 38z"/>
<path d="M493 1785 c-8 -21 1 -28 27 -20 17 5 19 10 9 21 -15 18 -28 18 -36
-1z"/>
<path d="M2146 1774 c-17 -17 -20 -33 -8 -50 21 -31 72 -18 72 19 0 43 -35 60
-64 31z"/>
<path d="M1633 1764 c-3 -8 0 -27 6 -41 l12 -26 26 26 c22 22 24 28 13 41 -16
21 -49 20 -57 0z"/>
<path d="M2311 1751 c-17 -17 -32 -36 -32 -43 -1 -7 -3 -24 -4 -38 -3 -29 8
-55 38 -87 31 -35 55 -29 66 15 20 77 17 110 -13 151 l-24 32 -31 -30z m46
-23 c12 -28 9 -96 -5 -110 -15 -15 -34 60 -26 101 8 37 17 39 31 9z"/>
<path d="M1293 1762 c-16 -10 3 -34 43 -55 25 -13 35 -14 47 -4 20 15 12 29
-30 51 -36 18 -43 19 -60 8z m73 -33 c9 -16 -34 -10 -50 7 -9 8 -16 17 -16 19
0 7 60 -17 66 -26z"/>
<path d="M1443 1758 c2 -7 10 -13 17 -13 7 0 15 6 18 13 2 7 -5 12 -18 12 -13
0 -20 -5 -17 -12z"/>
<path d="M1505 1703 c-16 -3 -38 -12 -49 -21 -10 -10 -20 -16 -22 -14 -2 1
-13 2 -24 2 -15 0 -20 -7 -20 -29 0 -16 -6 -31 -14 -34 -10 -4 -13 -16 -10
-35 3 -18 -1 -34 -11 -42 -8 -7 -15 -22 -15 -35 0 -27 34 -59 55 -52 9 4 15 1
15 -7 0 -8 -6 -16 -14 -19 -12 -5 -13 -11 -3 -37 11 -30 14 -31 50 -26 22 4
37 2 37 -4 0 -19 42 -10 89 18 25 15 59 34 74 42 16 8 40 27 53 43 23 27 24
31 9 53 -8 13 -15 38 -15 55 0 26 -11 42 -62 90 -35 32 -70 58 -78 57 -8 -1
-28 -3 -45 -5z m5 -44 c0 -4 -3 -10 -8 -13 -9 -5 -44 19 -36 26 7 8 44 -3 44
-13z m-70 -29 c-21 -14 -30 -12 -30 4 0 18 22 27 35 14 6 -6 5 -12 -5 -18z
m176 9 c12 -19 -12 -32 -36 -19 -18 10 -20 14 -9 21 19 12 36 11 45 -2z m-70
-48 c-12 -12 -18 -12 -31 -1 -14 12 -14 15 2 32 16 18 18 18 30 2 11 -15 11
-21 -1 -33z m-56 -2 c21 -37 -28 -69 -49 -32 -11 21 3 53 24 53 8 0 19 -9 25
-21z m178 -16 c-2 -10 -10 -18 -18 -18 -8 0 -16 8 -18 18 -2 12 3 17 18 17 15
0 20 -5 18 -17z m-258 -13 c0 -11 -2 -20 -5 -20 -2 0 -9 9 -15 20 -9 16 -8 20
5 20 8 0 15 -9 15 -20z m190 -10 c0 -19 -20 -27 -33 -13 -8 7 11 33 24 33 5 0
9 -9 9 -20z m-66 -41 c-19 -21 -23 -22 -42 -11 -16 11 -6 40 16 45 10 2 23 -1
30 -6 10 -8 9 -14 -4 -28z m105 12 c8 -5 11 -16 6 -30 -6 -20 -25 -30 -25 -13
0 4 -3 17 -6 30 -7 23 2 28 25 13z m-250 -15 c9 -10 8 -16 -4 -26 -20 -16 -38
-1 -29 23 8 21 18 22 33 3z m80 -5 c12 -21 5 -31 -20 -31 -22 0 -31 13 -23 34
8 22 31 20 43 -3z m224 -27 c-3 -8 -9 -14 -13 -14 -14 0 -21 17 -14 34 5 12
10 14 20 6 7 -7 10 -18 7 -26z m-93 -3 c0 -5 -7 -14 -15 -21 -22 -19 -48 5
-34 31 8 15 14 17 29 9 11 -6 20 -14 20 -19z m-70 -40 c0 -3 -5 -13 -10 -21
-8 -13 -11 -12 -24 5 -18 25 -2 52 20 34 8 -6 14 -14 14 -18z m106 -7 c-5 -14
-9 -15 -19 -5 -9 9 -9 14 3 21 18 11 24 6 16 -16z m-176 1 c7 -9 10 -18 7 -21
-10 -11 -37 5 -37 21 0 19 14 19 30 0z m65 -44 c3 -5 1 -12 -4 -15 -12 -8 -41
3 -41 15 0 12 37 12 45 0z"/>
<path d="M433 1655 c-38 -16 -42 -30 -13 -45 38 -20 108 11 97 45 -5 16 -49
16 -84 0z m61 -10 c-7 -18 -48 -30 -66 -19 -9 6 0 12 27 20 22 7 41 13 42 13
1 1 0 -6 -3 -14z"/>
<path d="M1288 1643 c-10 -3 -19 -9 -19 -14 -1 -5 -2 -15 -3 -21 -3 -19 14
-38 35 -38 19 0 51 38 43 52 -9 14 -38 25 -56 21z"/>
<path d="M167 1616 c-7 -19 11 -32 24 -19 6 6 5 14 -4 22 -12 9 -16 8 -20 -3z"/>
<path d="M1756 1614 c-10 -25 12 -46 35 -33 23 12 25 35 3 43 -24 9 -31 7 -38
-10z"/>
<path d="M2047 1623 c-10 -15 10 -35 29 -31 26 5 24 32 -3 36 -11 2 -23 -1
-26 -5z"/>
<path d="M333 1592 c-12 -2 -25 -12 -28 -22 -8 -24 11 -60 30 -60 16 0 55 35
55 48 0 17 -35 38 -57 34z"/>
<path d="M2237 1594 c-13 -13 -7 -24 14 -24 11 0 19 5 17 12 -5 14 -22 21 -31
12z"/>
<path d="M158 1523 c-40 -10 -8 -61 57 -92 80 -37 126 -20 91 34 -27 40 -101
70 -148 58z m101 -43 c41 -20 58 -45 37 -53 -17 -7 -87 27 -110 52 -19 21 -19
21 8 21 15 0 44 -9 65 -20z"/>
<path d="M1953 1523 c-7 -3 -13 -17 -13 -33 0 -33 32 -49 55 -30 15 13 21 59
8 61 -5 0 -15 2 -23 3 -8 2 -21 1 -27 -1z"/>
<path d="M2142 1511 c-76 -26 -117 -63 -154 -139 -36 -74 -44 -85 -72 -95 -16
-7 -11 -13 34 -42 62 -40 101 -50 186 -49 65 1 142 34 184 79 16 17 90 206 90
230 0 3 -15 5 -32 5 -18 0 -51 5 -73 11 -63 18 -110 18 -163 0z m190 -29 c7
-7 -2 -14 -26 -22 -30 -10 -44 -9 -84 6 -75 28 -71 34 17 30 46 -2 87 -8 93
-14z m-145 -29 c81 -25 69 -38 -31 -33 -22 1 -51 6 -65 12 -25 9 -25 10 -7 24
25 18 38 18 103 -3z m139 -70 c-26 -71 -44 -103 -56 -103 -14 0 -12 35 4 75
13 30 57 85 69 85 3 0 -5 -26 -17 -57z m-240 28 c16 -5 42 -12 59 -16 29 -6
29 -7 11 -21 -24 -17 -39 -17 -88 -3 -37 10 -50 32 -25 42 6 3 12 6 13 6 1 1
14 -3 30 -8z m152 -86 c-23 -79 -45 -108 -77 -103 l-21 3 24 51 c21 46 84 129
92 122 2 -2 -6 -35 -18 -73z m-170 26 c8 -5 -6 -16 -38 -30 -28 -13 -53 -21
-55 -19 -2 2 5 18 17 36 20 33 34 35 76 13z m73 -75 c-30 -67 -41 -74 -84 -57
-16 6 -14 11 18 54 31 40 84 81 93 72 2 -1 -10 -33 -27 -69z m-81 17 c-1 -5
-11 -20 -23 -35 -21 -26 -23 -26 -56 -12 -39 17 -39 18 14 37 47 17 65 20 65
10z"/>
<path d="M1830 1505 c-23 -27 -15 -67 19 -97 18 -16 36 -26 41 -23 13 8 3 84
-15 111 -18 28 -28 30 -45 9z m40 -24 c11 -22 14 -78 3 -67 -4 4 -13 25 -19
47 -12 41 -2 53 16 20z"/>
<path d="M373 1498 c-10 -13 -9 -84 2 -127 7 -26 -7 -41 -37 -41 -35 0 -129
-42 -157 -70 -62 -63 -52 -140 35 -256 34 -47 70 -105 80 -129 9 -25 18 -45
19 -45 6 0 115 113 161 166 74 87 84 104 84 148 0 53 -32 100 -95 140 -53 34
-75 70 -69 111 14 90 3 137 -23 103z m-32 -204 c-38 -17 -37 -30 2 -15 28 11
41 3 28 -17 -11 -18 -192 -85 -202 -75 -11 11 18 53 36 53 8 0 12 6 9 13 -3 9
9 20 33 30 55 23 65 25 98 25 l30 0 -34 -14z m107 -19 c20 -14 30 -25 22 -25
-15 0 -81 49 -67 50 4 0 25 -11 45 -25z m60 -85 c12 -18 20 -35 17 -38 -6 -6
-125 98 -125 110 0 18 84 -39 108 -72z m-20 -34 c46 -44 46 -44 33 -65 -7 -11
-21 -4 -66 35 -57 49 -77 78 -67 102 5 14 16 6 100 -72z m-118 60 c0 -20 -16
-30 -99 -61 -60 -23 -75 -25 -82 -14 -5 8 -9 16 -9 19 0 6 160 68 178 69 6 1
12 -5 12 -13z m-22 -74 c-6 -9 -36 -29 -66 -45 -51 -26 -55 -26 -68 -10 -21
28 -18 30 44 47 31 9 64 20 72 25 21 12 32 3 18 -17z m92 -33 c37 -42 49 -64
42 -71 -18 -18 -102 77 -102 116 0 9 2 16 4 16 1 0 27 -27 56 -61z m-87 -9
c-6 -22 -70 -80 -88 -80 -6 0 -15 8 -22 19 -11 17 -6 22 45 50 68 36 72 37 65
11z m105 -103 c-7 -8 -27 -30 -45 -50 -33 -37 -56 -41 -68 -10 -3 9 -1 21 5
27 5 5 10 24 10 40 l0 30 -28 -34 c-20 -23 -34 -31 -45 -27 -26 10 -20 30 17
54 42 27 56 25 97 -15 18 -17 35 -30 37 -27 3 3 -11 22 -31 42 -24 23 -37 46
-37 62 0 24 3 23 51 -26 42 -44 48 -55 37 -66z m-125 -49 c-6 -31 -20 -37 -30
-13 -3 9 2 22 13 30 23 17 23 16 17 -17z"/>
<path d="M473 1498 c2 -7 10 -13 17 -13 7 0 15 6 18 13 2 7 -5 12 -18 12 -13
0 -20 -5 -17 -12z"/>
<path d="M1246 1432 c-2 -4 -1 -14 4 -22 7 -11 12 -12 21 -3 6 6 8 16 5 22 -8
13 -23 14 -30 3z"/>
<path d="M477 1398 c-20 -11 -22 -51 -4 -66 18 -16 57 -11 67 9 9 16 3 58 -9
60 -3 0 -13 2 -22 4 -8 1 -23 -1 -32 -7z"/>
<path d="M1754 1396 c-15 -12 -17 -18 -8 -33 12 -20 53 -30 55 -14 1 6 2 17 3
24 2 13 -13 37 -23 37 -4 0 -16 -6 -27 -14z"/>
<path d="M162 1388 c-16 -16 -15 -55 1 -65 36 -22 82 4 71 41 -11 36 -48 48
-72 24z"/>
<path d="M611 1367 c-6 -8 -17 -29 -25 -48 -13 -31 -13 -39 1 -67 23 -47 80
-104 101 -100 38 7 22 135 -24 196 -28 35 -36 38 -53 19z m60 -69 c14 -34 20
-108 9 -108 -12 0 -42 70 -47 112 -5 32 -3 37 10 32 8 -3 21 -19 28 -36z"/>
<path d="M2412 1353 c-20 -21 3 -46 29 -32 24 12 24 26 2 38 -13 6 -22 4 -31
-6z"/>
<path d="M1323 1352 c-7 -4 -9 -13 -4 -21 7 -10 13 -11 31 -1 18 10 20 14 9
21 -17 11 -21 11 -36 1z"/>
<path d="M1661 1336 c-9 -10 -8 -16 4 -26 13 -11 19 -10 33 4 15 15 15 18 2
26 -20 13 -26 12 -39 -4z"/>
<path d="M1122 1328 c-16 -16 -15 -33 4 -52 22 -23 43 -20 56 9 19 41 -28 75
-60 43z"/>
<path d="M1233 1314 c-9 -25 24 -82 59 -104 24 -15 44 -18 82 -15 27 3 51 7
53 9 9 8 -68 84 -100 99 -51 24 -87 28 -94 11z m120 -56 c20 -16 37 -32 37
-35 0 -3 -20 -3 -46 0 -47 5 -73 26 -74 60 0 24 32 14 83 -25z"/>
<path d="M754 1291 c-11 -9 -19 -22 -18 -28 1 -7 2 -17 3 -23 2 -19 40 -31 62
-20 15 8 19 19 17 42 -4 39 -35 53 -64 29z"/>
<path d="M1520 1281 c-14 -28 18 -66 48 -57 23 8 39 47 27 65 -11 19 -63 13
-75 -8z"/>
<path d="M880 1275 c-10 -12 -10 -19 -2 -27 17 -17 37 5 25 27 -9 15 -11 15
-23 0z"/>
<path d="M1816 1283 c-11 -11 -6 -23 8 -23 8 0 17 4 20 9 7 10 -19 23 -28 14z"/>
<path d="M1030 1235 c0 -10 7 -15 18 -13 21 4 19 22 -2 26 -10 2 -16 -3 -16
-13z"/>
<path d="M2367 1239 c-21 -13 -47 -61 -47 -90 0 -18 4 -20 25 -15 40 10 115
59 121 80 4 10 0 22 -7 27 -19 12 -70 11 -92 -2z m81 -28 c-12 -20 -59 -51
-77 -51 -22 0 10 41 42 55 43 19 49 18 35 -4z"/>
<path d="M1662 1224 c-11 -8 -30 -30 -43 -50 -17 -28 -26 -34 -43 -29 -54 17
-62 16 -89 -11 -19 -18 -27 -37 -27 -60 0 -19 -15 -64 -35 -102 -42 -83 -41
-124 6 -163 25 -22 30 -33 28 -60 -4 -51 9 -77 44 -94 18 -8 56 -33 86 -56 29
-22 61 -41 70 -42 9 0 43 10 75 22 45 19 62 22 80 13 13 -6 39 -8 57 -5 80 12
133 74 129 150 -3 78 -3 80 26 122 22 34 26 48 21 82 -6 46 -26 71 -83 103
-30 17 -40 30 -48 65 -11 42 -43 78 -77 85 -77 15 -96 20 -105 28 -21 16 -51
17 -72 2z m27 -66 c2 -29 4 -65 5 -80 0 -14 5 -30 10 -35 5 -5 6 17 3 50 -6
60 4 107 23 107 6 0 10 -25 10 -57 0 -65 10 -66 13 -2 2 37 6 45 25 47 22 3
22 1 18 -49 -3 -29 -13 -74 -22 -101 -18 -55 -40 -66 -30 -16 4 20 3 29 -3 23
-5 -6 -11 -19 -13 -29 -1 -11 -8 -21 -14 -23 -14 -5 -74 102 -74 131 0 18 34
86 43 86 2 0 5 -24 6 -52z m166 -26 c-7 -35 -48 -138 -61 -153 -12 -14 -11
-18 7 -35 29 -26 22 -109 -11 -136 -20 -16 -21 -22 -11 -44 16 -35 14 -80 -5
-120 -29 -61 -38 -53 -30 31 l7 78 -55 51 c-57 52 -72 90 -41 102 8 4 13 10
10 15 -8 12 34 36 75 43 33 6 36 10 58 79 12 39 25 87 29 106 5 30 7 32 19 17
7 -10 11 -25 9 -34z m-284 -24 c47 -37 85 -99 74 -125 -5 -15 -15 -8 -56 37
-65 70 -90 106 -82 114 11 11 20 7 64 -26z m321 -21 c0 -39 -20 -83 -51 -111
-20 -18 -20 -18 -10 15 6 19 18 60 26 92 17 63 35 65 35 4z m-371 -19 c13 -18
26 -35 29 -38 35 -32 60 -76 60 -109 0 -21 -3 -40 -6 -43 -3 -4 -25 7 -49 23
-23 16 -46 29 -49 29 -4 0 -18 7 -31 16 -20 13 -23 20 -14 35 10 19 11 19 49
-1 57 -29 69 -24 29 13 -56 53 -70 73 -63 91 9 24 20 20 45 -16z m460 -65 l41
-27 -84 -23 c-102 -28 -111 -28 -75 -2 15 12 34 34 43 50 18 36 24 36 75 2z
m37 -84 c2 -15 -5 -32 -15 -42 -17 -15 -23 -15 -68 -1 -28 9 -56 16 -63 17
-30 1 -1 22 54 38 75 21 88 20 92 -12z m-445 -49 l32 -20 -35 2 c-74 4 -159
56 -134 81 6 6 77 -26 137 -63z m-33 -41 c0 -7 -60 -3 -90 6 -10 3 -20 12 -23
19 -4 11 6 10 54 -2 32 -9 59 -19 59 -23z m403 25 c41 -7 41 -7 27 -33 -5 -10
-10 -38 -11 -62 -2 -56 -9 -89 -19 -89 -13 0 -42 70 -36 88 4 11 -7 31 -30 55
-32 33 -33 37 -14 37 13 0 19 4 14 11 -4 7 0 9 12 6 11 -3 36 -9 57 -13z
m-322 -63 c-9 -16 -38 -41 -108 -94 -10 -7 -13 0 -11 32 2 47 13 60 60 68 18
3 35 7 37 9 2 2 10 4 18 4 10 0 11 -5 4 -19z m-4 -75 c-31 -46 -39 -53 -61
-49 -14 3 -26 7 -26 10 0 11 115 110 119 102 1 -6 -13 -34 -32 -63z m227 12
l25 -53 -5 50 -5 50 18 -24 c10 -14 25 -41 35 -62 14 -33 15 -39 2 -50 -11 -9
-17 -9 -29 1 -12 10 -15 10 -15 -4 0 -17 -17 -20 -44 -10 -13 5 -16 22 -16 80
0 41 2 74 5 74 3 0 16 -24 29 -52z m-164 -9 c-26 -70 -47 -100 -65 -93 -8 4
-15 10 -15 16 0 12 82 128 91 128 4 0 -1 -23 -11 -51z m43 -36 c-3 -80 -6 -88
-32 -102 -15 -9 -23 -7 -36 5 -14 15 -14 19 -1 39 35 53 56 97 56 116 0 11 4
18 8 15 5 -3 7 -35 5 -73z"/>
<path d="M936 1185 c-10 -19 -15 -43 -12 -53 3 -9 7 -33 10 -53 3 -20 10 -48
15 -61 8 -22 5 -29 -17 -47 -14 -11 -30 -21 -34 -21 -4 0 -9 26 -9 58 -3 136
-10 162 -34 129 -18 -25 -17 -163 2 -200 13 -26 13 -30 -8 -48 -12 -10 -24
-17 -26 -15 -4 4 -17 127 -21 209 -2 36 -17 27 -27 -15 -4 -18 -9 -40 -11 -48
-11 -46 -10 -80 3 -115 24 -66 24 -69 4 -95 l-20 -25 3 50 c2 29 -5 80 -16
120 -11 39 -21 75 -22 82 -4 25 -14 23 -24 -5 -16 -46 -8 -140 17 -210 18 -50
20 -66 11 -77 -18 -22 -27 -18 -35 13 -9 30 -11 46 -20 177 -8 110 -12 135
-26 135 -6 0 -9 -6 -7 -12 3 -7 -3 -38 -12 -68 -24 -83 -16 -180 21 -246 27
-49 24 -65 -22 -109 -42 -41 -95 -122 -86 -131 2 -3 34 33 71 80 36 47 70 87
75 90 4 3 35 -4 67 -16 67 -23 198 -36 208 -20 5 9 -64 34 -218 79 -16 5 -17
7 -3 20 14 14 19 14 51 -1 38 -18 156 -32 183 -22 15 6 15 8 -3 20 -29 21
-114 42 -161 41 -41 -1 -42 0 -29 19 8 12 22 20 33 18 38 -8 169 -6 198 2 l30
8 -30 15 c-31 17 -87 20 -151 9 l-39 -7 39 34 c40 34 40 34 85 20 84 -25 153
-34 171 -23 18 11 -57 51 -122 64 l-58 12 21 20 c18 18 26 20 63 11 46 -10
176 -1 176 13 0 5 -21 12 -47 16 -27 3 -65 9 -87 13 l-39 6 60 42 c82 58 147
133 115 133 -5 0 -35 -16 -68 -35 -58 -35 -116 -88 -126 -116 -9 -24 -16 -6
-23 51 -7 66 -15 113 -19 118 -2 1 -11 -13 -20 -33z"/>
<path d="M744 1159 c-8 -14 11 -33 25 -25 6 4 11 11 11 16 0 13 -29 20 -36 9z"/>
<path d="M1995 1130 c-16 -18 -16 -21 -1 -44 24 -38 75 -21 76 25 0 39 -46 51
-75 19z"/>
<path d="M2220 1136 c0 -8 5 -18 10 -21 13 -8 42 14 34 26 -9 15 -44 10 -44
-5z"/>
<path d="M2104 1113 c3 -10 16 -47 29 -82 l23 -64 -23 -23 c-26 -26 -22 -49
11 -76 26 -21 50 -23 69 -4 19 20 10 62 -17 84 -13 9 -30 39 -39 66 -15 45
-15 47 0 35 41 -33 143 -140 145 -151 0 -7 1 -20 2 -28 1 -8 13 -21 28 -29 22
-13 29 -13 42 -2 9 7 16 21 16 30 0 23 -36 61 -58 61 -9 1 -37 19 -61 40 -38
35 -41 40 -21 40 13 0 36 -15 56 -36 32 -36 34 -37 59 -20 30 20 32 40 4 60
-16 11 -28 12 -49 5 -37 -13 -130 28 -172 76 -34 38 -53 45 -44 18z"/>
<path d="M1242 1107 c-25 -31 38 -97 93 -97 l33 0 -11 36 c-6 20 -20 42 -32
49 -32 20 -72 26 -83 12z m77 -64 c2 -2 1 -6 -2 -10 -8 -8 -57 36 -57 50 0 6
12 0 28 -14 15 -13 29 -25 31 -26z"/>
<path d="M2396 1091 c-7 -11 3 -41 14 -41 4 0 13 7 21 16 10 13 10 17 -2 25
-18 11 -26 11 -33 0z"/>
<path d="M1256 939 c-11 -17 -12 -26 -3 -40 15 -24 27 -28 55 -18 15 6 22 17
22 33 0 42 -50 59 -74 25z"/>
<path d="M493 933 c-20 -7 -15 -51 5 -62 20 -11 62 10 62 31 0 24 -40 42 -67
31z"/>
<path d="M206 863 c-5 -11 -1 -22 11 -31 26 -19 48 -11 48 18 0 20 -6 26 -26
28 -18 2 -29 -3 -33 -15z"/>
<path d="M431 856 c-13 -15 -7 -36 9 -36 12 0 19 25 11 39 -6 9 -11 8 -20 -3z"/>
<path d="M1160 850 c0 -18 3 -19 21 -9 17 9 19 13 8 20 -22 14 -29 11 -29 -11z"/>
<path d="M1227 813 c-17 -16 -3 -168 14 -157 5 3 6 10 3 16 -4 5 -6 41 -6 79
0 71 0 74 -11 62z"/>
<path d="M1313 801 c-12 -20 -8 -31 13 -31 17 0 25 27 10 39 -8 7 -15 5 -23
-8z"/>
<path d="M2251 786 c-15 -18 -3 -48 18 -44 21 4 27 44 7 51 -8 3 -19 0 -25 -7z"/>
<path d="M461 778 c-50 -13 -91 -48 -112 -93 -23 -50 -11 -68 40 -62 55 7 83
21 124 62 65 65 37 116 -52 93z m49 -22 c0 -7 -132 -88 -136 -83 -9 9 41 60
70 73 30 13 66 18 66 10z m10 -29 c0 -14 -41 -47 -66 -53 -28 -6 -28 -6 11 24
37 28 55 38 55 29z"/>
<path d="M2116 752 c-8 -16 -14 -35 -12 -43 6 -36 19 -60 38 -70 31 -17 47 11
44 73 -3 70 -43 93 -70 40z m54 -43 c0 -35 -19 -67 -21 -37 -8 96 -8 99 7 87
8 -6 14 -29 14 -50z"/>
<path d="M270 726 c0 -21 21 -31 30 -15 5 7 6 17 4 21 -9 14 -34 9 -34 -6z"/>
<path d="M1085 674 c-28 -37 -35 -58 -24 -75 8 -11 14 -8 34 16 14 17 25 37
25 45 -1 11 -4 10 -15 -4 -8 -11 -15 -23 -15 -28 0 -4 -5 -8 -10 -8 -6 0 -4
13 5 30 9 17 20 30 25 30 6 0 10 5 10 10 0 18 -15 11 -35 -16z"/>
<path d="M1316 667 c-26 -19 -17 -52 14 -52 18 0 26 6 28 21 4 30 -20 47 -42
31z"/>
<path d="M2210 614 c-72 -73 -93 -84 -163 -89 -55 -4 -77 -15 -29 -15 44 0 46
-12 7 -39 -41 -28 -64 -32 -90 -16 -11 7 -31 16 -45 19 l-25 7 24 -20 23 -21
-28 -1 c-25 0 -26 -2 -9 -8 19 -8 19 -8 0 -18 -17 -8 -39 -9 -74 -4 -4 0 -25
17 -46 36 -36 35 -61 41 -35 9 12 -13 11 -17 -1 -26 -11 -8 -11 -11 -1 -15 10
-4 9 -10 -5 -26 -18 -20 -18 -20 12 -13 28 7 29 7 12 -12 -25 -27 -21 -39 6
-16 29 26 63 41 110 49 41 7 45 1 20 -27 -20 -22 -1 -24 21 -2 15 14 16 14 16
0 0 -10 14 -1 37 25 36 40 90 75 100 65 3 -3 -5 -21 -17 -41 -31 -51 -19 -54
20 -5 22 28 35 38 40 29 5 -7 14 1 25 24 9 20 46 69 82 109 57 65 89 108 81
108 -2 0 -33 -30 -68 -66z"/>
<path d="M2043 643 c-19 -7 -16 -50 3 -57 9 -4 28 1 42 10 l26 17 -23 18 c-24
20 -28 21 -48 12z"/>
<path d="M1238 635 c-7 -7 10 -76 38 -153 12 -35 20 -71 17 -80 -4 -9 -24 -36
-45 -59 -29 -32 -38 -51 -38 -77 0 -73 59 -146 94 -117 33 27 39 78 20 157
-11 50 -14 78 -7 85 9 9 18 -6 71 -119 22 -46 77 -73 146 -71 83 3 84 5 57
104 -13 49 -57 94 -97 101 -16 2 -35 7 -42 9 -7 3 -31 -2 -54 -10 -41 -14 -68
-7 -68 16 0 5 -11 27 -25 49 -14 22 -23 40 -20 40 3 0 24 -10 47 -21 23 -12
63 -23 90 -25 39 -2 53 2 78 22 24 21 28 29 20 45 -29 52 -122 73 -163 35 -13
-12 -29 -31 -35 -42 -11 -19 -11 -19 -26 1 -9 11 -24 41 -34 68 -10 26 -21 45
-24 42z"/>
<path d="M1150 600 c-14 -26 -5 -40 24 -40 35 0 51 24 31 44 -22 22 -42 20
-55 -4z"/>
<path d="M973 581 c-10 -15 -9 -22 2 -31 14 -11 35 -6 35 9 0 4 -6 15 -12 24
-12 16 -14 16 -25 -2z"/>
<path d="M676 582 c-10 -16 11 -34 33 -27 18 5 20 9 10 21 -13 15 -35 19 -43
6z"/>
<path d="M828 579 c-9 -5 -15 -17 -13 -27 2 -9 4 -20 4 -24 2 -15 48 -8 64 10
15 17 15 19 -11 34 -19 11 -33 13 -44 7z"/>
<path d="M440 536 c0 -8 5 -18 10 -21 13 -8 42 14 34 26 -9 15 -44 10 -44 -5z"/>
<path d="M1179 504 c-20 -22 -30 -25 -64 -20 -34 4 -37 4 -17 -6 12 -6 22 -14
22 -18 0 -8 -45 -6 -77 3 -71 21 -69 21 -38 -6 36 -31 13 -37 -25 -7 -37 29
-61 25 -25 -5 36 -29 15 -34 -22 -5 -32 25 -56 26 -25 1 52 -44 0 -35 -62 10
-52 38 -67 37 -30 -2 29 -31 29 -31 4 -24 -24 8 -53 34 -70 65 -5 8 -11 12
-14 9 -4 -3 3 -18 15 -33 28 -35 21 -40 -29 -21 -22 9 -51 15 -64 13 -17 -3
-8 -9 35 -22 31 -9 57 -22 57 -27 0 -5 12 -9 27 -9 l27 0 -22 -16 c-12 -8 -22
-19 -22 -25 0 -9 37 8 75 36 12 8 25 11 34 6 10 -6 6 -13 -18 -27 -49 -29 -43
-42 8 -17 54 26 68 29 51 8 -20 -24 -3 -18 46 16 50 34 62 33 43 -3 -12 -22
-11 -22 6 -8 10 8 29 25 41 38 31 30 53 29 46 -3 -6 -35 10 -31 27 6 7 17 31
43 52 58 40 27 54 47 40 55 -4 3 -19 -6 -32 -20z"/>
<path d="M1814 519 c-3 -6 -2 -15 2 -19 12 -12 38 5 30 19 -9 14 -23 14 -32 0z"/>
<path d="M1583 480 c-23 -18 -20 -31 14 -49 18 -9 24 -8 37 10 28 40 -12 71
-51 39z"/>
<path d="M571 451 c-17 -11 -22 -48 -7 -60 13 -11 57 6 63 25 5 15 -41 44 -56
35z"/>
<path d="M1182 408 c-7 -7 -12 -22 -12 -35 0 -18 6 -23 25 -23 29 0 43 25 28
48 -13 21 -26 25 -41 10z"/>
<path d="M698 403 c7 -3 16 -2 19 1 4 3 -2 6 -13 5 -11 0 -14 -3 -6 -6z"/>
<path d="M751 296 c-13 -15 -5 -46 13 -46 27 1 38 17 27 39 -14 24 -24 26 -40
7z"/>
<path d="M896 282 c-8 -13 11 -35 23 -28 16 10 14 36 -3 36 -8 0 -17 -4 -20
-8z"/>
<path d="M1010 263 c-27 -13 -56 -35 -64 -49 -16 -23 -16 -25 9 -34 35 -13 53
-13 113 5 65 19 84 48 53 78 -28 28 -55 28 -111 0z m108 -24 c4 -19 -12 -26
-76 -35 -26 -3 -51 -9 -57 -11 -5 -3 -3 1 5 10 22 22 93 58 110 55 8 -2 16
-10 18 -19z"/>
<path d="M1663 268 c-5 -7 -8 -19 -7 -25 1 -7 2 -17 3 -23 2 -15 34 -12 56 4
19 14 19 15 1 35 -22 24 -39 27 -53 9z"/>
<path d="M1162 167 c-10 -11 -9 -17 3 -27 24 -20 45 4 24 26 -14 13 -17 13
-27 1z"/>
<path d="M1414 145 c-4 -8 -1 -22 6 -30 11 -13 14 -13 25 2 10 13 10 22 3 30
-14 17 -27 16 -34 -2z"/>
</g>
</svg>
